<?xml version="1.0" standalone="no"?>
<!DOCTYPE svg PUBLIC "-//W3C//DTD SVG 20010904//EN"
 "http://www.w3.org/TR/2001/REC-SVG-20010904/DTD/svg10.dtd">
<svg version="1.0" xmlns="http://www.w3.org/2000/svg"
 width="96.000000pt" height="96.000000pt" viewBox="0 0 96.000000 96.000000"
 preserveAspectRatio="xMidYMid meet">

<g transform="translate(0.000000,96.000000) scale(0.100000,-0.100000)"
fill="#000000" stroke="none">
<path d="M276 838 c-24 -34 -23 -423 0 -457 17 -23 17 -23 202 -19 l184 4 24
27 c33 39 33 99 -1 132 -13 14 -33 25 -45 25 -15 0 -20 6 -20 28 0 22 6 29 34
38 32 10 35 8 60 -23 28 -34 56 -44 56 -19 0 8 -16 27 -35 43 -25 21 -32 32
-25 43 27 42 -14 110 -65 110 -19 0 -25 5 -25 23 0 12 -7 33 -16 45 -14 21
-22 22 -164 22 -142 0 -150 -1 -164 -22z m89 -8 c3 -5 37 -10 75 -10 38 0 72
5 75 10 9 14 58 13 73 -2 18 -18 15 -48 -10 -94 -19 -37 -20 -45 -9 -73 8 -17
17 -31 22 -31 5 0 9 -18 9 -40 0 -22 -5 -40 -10 -40 -6 0 -22 -11 -36 -25 -22
-22 -33 -25 -127 -27 -97 -3 -102 -4 -105 -25 -3 -23 -1 -23 96 -23 l100 0 21
-35 20 -35 -127 0 c-86 0 -132 4 -140 12 -17 17 -17 419 0 436 15 15 64 16 73
2z m317 -97 c10 -9 18 -27 18 -40 0 -28 -33 -63 -60 -63 -11 0 -29 9 -40 20
-55 55 24 135 82 83z m-8 -223 c29 -28 25 -78 -8 -107 -36 -31 -61 -29 -98 7
-24 25 -29 36 -23 58 17 68 80 89 129 42z"/>
<path d="M422 778 c-20 -20 -14 -44 16 -58 l27 -13 -29 -6 c-27 -6 -28 -7 -12
-20 15 -13 20 -12 38 6 23 24 18 39 -20 56 l-27 11 28 4 c23 3 26 6 16 18 -14
17 -21 18 -37 2z"/>
<path d="M588 499 c-21 -11 -24 -59 -6 -77 7 -7 25 -12 42 -12 l29 0 -20 23
c-12 12 -23 34 -25 49 -2 22 -6 25 -20 17z"/>
<path d="M210 265 c0 -41 2 -45 25 -45 14 0 25 5 25 10 0 6 -9 10 -20 10 -27
0 -25 18 3 23 22 4 22 4 -3 14 l-25 11 25 10 25 11 -27 0 c-27 1 -28 -1 -28
-44z"/>
<path d="M290 290 c7 -14 8 -26 0 -39 -15 -29 -12 -39 6 -16 14 19 16 19 25 3
6 -10 15 -18 21 -18 6 0 3 12 -7 26 -12 19 -14 29 -6 37 18 18 13 31 -6 16
-13 -11 -17 -11 -20 -1 -3 6 -9 12 -14 12 -6 0 -5 -8 1 -20z"/>
<path d="M360 271 c0 -22 5 -43 10 -46 6 -3 10 1 10 10 0 8 12 20 26 25 37 14
28 44 -14 48 -31 3 -32 2 -32 -37z m50 14 c0 -8 -7 -15 -15 -15 -8 0 -15 7
-15 15 0 8 7 15 15 15 8 0 15 -7 15 -15z"/>
<path d="M440 270 c0 -43 16 -58 48 -44 15 7 14 8 -5 11 -26 5 -32 23 -8 23 8
0 15 5 15 10 0 6 -7 10 -15 10 -23 0 -18 18 8 23 16 3 13 5 -10 6 -32 1 -33 0
-33 -39z"/>
<path d="M522 263 c1 -39 2 -42 5 -14 l4 34 29 -34 29 -34 1 48 c0 26 -4 47
-10 47 -5 0 -10 -12 -10 -27 l-1 -28 -17 28 c-24 39 -32 34 -30 -20z"/>
<path d="M610 290 c0 -11 4 -20 8 -20 5 0 17 -7 28 -16 18 -15 18 -15 -9 -11
-18 3 -26 0 -24 -7 2 -6 15 -11 28 -11 32 0 40 40 10 50 -12 3 -21 11 -21 16
0 6 9 7 21 4 15 -5 19 -4 15 4 -4 6 -18 11 -32 11 -17 0 -24 -5 -24 -20z"/>
<path d="M690 265 c0 -41 2 -45 25 -45 14 0 25 5 25 10 0 6 -7 10 -15 10 -8 0
-15 5 -15 10 0 6 7 10 15 10 8 0 15 5 15 10 0 6 -7 10 -15 10 -21 0 -19 18 3
23 10 3 6 5 -10 6 -27 1 -28 -1 -28 -44z"/>
<path d="M458 189 c-18 -10 -23 -35 -12 -63 7 -18 49 -22 59 -6 4 6 -4 9 -17
7 -19 -2 -24 3 -26 27 -3 26 -1 28 22 22 28 -7 36 8 10 18 -19 7 -15 8 -36 -5z"/>
<path d="M213 183 c12 -3 17 -15 17 -39 0 -19 5 -34 10 -34 6 0 10 15 10 34 0
19 6 37 13 39 6 3 -6 5 -28 5 -22 0 -32 -2 -22 -5z"/>
<path d="M280 150 c0 -38 20 -60 20 -22 1 16 1 16 14 0 19 -26 23 -23 24 22 2
38 0 40 -28 40 -28 0 -30 -2 -30 -40z m48 18 c-6 -18 -28 -21 -28 -4 0 9 7 16
16 16 9 0 14 -5 12 -12z"/>
<path d="M372 153 c-12 -39 -7 -58 8 -33 8 12 13 13 30 2 23 -14 24 -8 9 37
-15 41 -33 39 -47 -6z m32 2 c3 -8 1 -15 -4 -15 -6 0 -10 7 -10 15 0 8 2 15 4
15 2 0 6 -7 10 -15z"/>
<path d="M530 150 c0 -38 20 -60 20 -22 1 15 2 15 15 -2 8 -11 18 -17 21 -13
4 4 1 14 -6 23 -11 12 -11 20 -2 35 7 10 8 19 3 19 -6 0 -15 -8 -20 -17 -10
-17 -10 -17 -11 0 0 9 -4 17 -10 17 -5 0 -10 -18 -10 -40z"/>
<path d="M610 150 c0 -39 1 -40 33 -39 23 1 26 3 10 6 -26 5 -31 23 -8 23 8 0
15 5 15 10 0 6 -7 10 -15 10 -21 0 -19 18 3 23 10 3 6 5 -10 6 -26 1 -28 -2
-28 -39z"/>
<path d="M680 150 c0 -22 5 -40 10 -40 6 0 10 7 10 17 0 15 2 14 19 -2 19 -16
20 -16 19 1 0 11 0 24 2 29 6 25 -2 35 -30 35 -28 0 -30 -2 -30 -40z m48 18
c-6 -18 -28 -21 -28 -4 0 9 7 16 16 16 9 0 14 -5 12 -12z"/>
</g>
</svg>
