<svg width="32" height="32" viewBox="0 0 32 32" fill="none" xmlns="http://www.w3.org/2000/svg">
<path d="M13.7667 5.75606C14.3347 3.41473 17.6653 3.41473 18.2333 5.75606C18.3186 6.10779 18.4856 6.43443 18.7209 6.70939C18.9563 6.98435 19.2532 7.19987 19.5875 7.33839C19.9219 7.47691 20.2842 7.53453 20.645 7.50655C21.0059 7.47858 21.355 7.3658 21.664 7.17739C23.7213 5.92406 26.0773 8.27873 24.824 10.3374C24.6359 10.6463 24.5233 10.9952 24.4954 11.3558C24.4674 11.7163 24.525 12.0784 24.6634 12.4126C24.8017 12.7467 25.017 13.0435 25.2916 13.2788C25.5663 13.5141 25.8926 13.6813 26.244 13.7667C28.5853 14.3347 28.5853 17.6654 26.244 18.2334C25.8923 18.3186 25.5656 18.4857 25.2907 18.721C25.0157 18.9563 24.8002 19.2532 24.6617 19.5876C24.5232 19.9219 24.4655 20.2843 24.4935 20.6451C24.5215 21.0059 24.6343 21.3551 24.8227 21.6641C26.076 23.7214 23.7213 26.0774 21.6627 24.8241C21.3538 24.6359 21.0049 24.5233 20.6443 24.4954C20.2837 24.4675 19.9216 24.5251 19.5875 24.6634C19.2533 24.8018 18.9566 25.017 18.7213 25.2917C18.486 25.5663 18.3188 25.8926 18.2333 26.2441C17.6653 28.5854 14.3347 28.5854 13.7667 26.2441C13.6814 25.8923 13.5144 25.5657 13.2791 25.2907C13.0437 25.0158 12.7468 24.8003 12.4125 24.6617C12.0781 24.5232 11.7158 24.4656 11.355 24.4936C10.9941 24.5215 10.645 24.6343 10.336 24.8227C8.27867 26.0761 5.92267 23.7214 7.176 21.6627C7.36414 21.3539 7.47673 21.0049 7.50465 20.6444C7.53256 20.2838 7.47499 19.9217 7.33663 19.5876C7.19827 19.2534 6.98301 18.9566 6.70836 18.7213C6.43371 18.486 6.10742 18.3189 5.756 18.2334C3.41467 17.6654 3.41467 14.3347 5.756 13.7667C6.10773 13.6815 6.43437 13.5144 6.70933 13.2791C6.98429 13.0438 7.19981 12.7469 7.33833 12.4125C7.47685 12.0782 7.53447 11.7158 7.50649 11.355C7.47852 10.9942 7.36574 10.6451 7.17733 10.3361C5.924 8.27873 8.27867 5.92273 10.3373 7.17606C11.6707 7.98673 13.3987 7.26939 13.7667 5.75606Z" stroke="#080655" stroke-linecap="round" stroke-linejoin="round"/>
<path d="M12 16.0001C12 17.0609 12.4214 18.0783 13.1716 18.8285C13.9217 19.5786 14.9391 20.0001 16 20.0001C17.0609 20.0001 18.0783 19.5786 18.8284 18.8285C19.5786 18.0783 20 17.0609 20 16.0001C20 14.9392 19.5786 13.9218 18.8284 13.1716C18.0783 12.4215 17.0609 12.0001 16 12.0001C14.9391 12.0001 13.9217 12.4215 13.1716 13.1716C12.4214 13.9218 12 14.9392 12 16.0001Z" stroke="#080655" stroke-linecap="round" stroke-linejoin="round"/>
</svg>
